<?xml version="1.0" encoding="UTF-8" standalone="no"?>
<!-- Created with Inkscape (http://www.inkscape.org/) -->
<svg xmlns:dc="http://purl.org/dc/elements/1.1/" xmlns:cc="http://creativecommons.org/ns#" xmlns:rdf="http://www.w3.org/1999/02/22-rdf-syntax-ns#" xmlns:svg="http://www.w3.org/2000/svg" xmlns="http://www.w3.org/2000/svg" xmlns:sodipodi="http://sodipodi.sourceforge.net/DTD/sodipodi-0.dtd" xmlns:inkscape="http://www.inkscape.org/namespaces/inkscape" id="svg2" version="1.1" inkscape:version="0.91 r13725" xml:space="preserve" width="152.825mm" height="124mm" viewBox="0 0 541.50592 439.37008" sodipodi:docname="map.svg" style="enable-background:new">
  <metadata id="metadata8">
    <rdf:RDF>
      <cc:Work rdf:about="">
        <dc:format>image/svg+xml</dc:format>
        <dc:type rdf:resource="http://purl.org/dc/dcmitype/StillImage"/>
        <dc:title/>
      </cc:Work>
    </rdf:RDF>
  </metadata>
  <defs id="defs6">
    <radialGradient inkscape:collect="always" id="radialGradient_1" cx="318.9855" cy="280.80768" fx="318.9855" fy="280.80768" r="106.29921" gradientUnits="userSpaceOnUse">
      <stop style="stop-color:#ffffff;stop-opacity:1;" offset="0" id="stop8"/>
      <stop style="stop-color:#ffffff;stop-opacity:0.7500;" offset="0.1" id="stop10"/>
      <stop style="stop-color:#ffffff;stop-opacity:0.4211;" offset="0.2" id="stop12"/>
      <stop style="stop-color:#ffffff;stop-opacity:0.2345;" offset="0.3" id="stop14"/>
      <stop style="stop-color:#ffffff;stop-opacity:0.1373;" offset="0.4" id="stop16"/>
      <stop style="stop-color:#ffffff;stop-opacity:0.0833;" offset="0.5" id="stop18"/>
      <stop style="stop-color:#ffffff;stop-opacity:0.0511;" offset="0.6" id="stop20"/>
      <stop style="stop-color:#ffffff;stop-opacity:0.0306;" offset="0.7" id="stop22"/>
      <stop style="stop-color:#ffffff;stop-opacity:0.0168;" offset="0.8" id="stop24"/>
      <stop style="stop-color:#ffffff;stop-opacity:0.0071;" offset="0.9" id="stop26"/>
      <stop style="stop-color:#ffffff;stop-opacity:0;" offset="1" id="stop28"/>
    </radialGradient>
    <radialGradient inkscape:collect="always" id="radialGradient_2" cx="367.61862" cy="137.29645" fx="367.61862" fy="137.29645" r="106.29921" gradientUnits="userSpaceOnUse">
      <stop style="stop-color:#ffffff;stop-opacity:1;" offset="0" id="stop31"/>
      <stop style="stop-color:#ffffff;stop-opacity:0.7500;" offset="0.1" id="stop33"/>
      <stop style="stop-color:#ffffff;stop-opacity:0.4211;" offset="0.2" id="stop35"/>
      <stop style="stop-color:#ffffff;stop-opacity:0.2345;" offset="0.3" id="stop37"/>
      <stop style="stop-color:#ffffff;stop-opacity:0.1373;" offset="0.4" id="stop39"/>
      <stop style="stop-color:#ffffff;stop-opacity:0.0833;" offset="0.5" id="stop41"/>
      <stop style="stop-color:#ffffff;stop-opacity:0.0511;" offset="0.6" id="stop43"/>
      <stop style="stop-color:#ffffff;stop-opacity:0.0306;" offset="0.7" id="stop45"/>
      <stop style="stop-color:#ffffff;stop-opacity:0.0168;" offset="0.8" id="stop47"/>
      <stop style="stop-color:#ffffff;stop-opacity:0.0071;" offset="0.9" id="stop49"/>
      <stop style="stop-color:#ffffff;stop-opacity:0;" offset="1" id="stop51"/>
    </radialGradient>
    <radialGradient inkscape:collect="always" id="radialGradient_3" cx="239.96941" cy="349.01566" fx="239.96941" fy="349.01566" r="106.29921" gradientUnits="userSpaceOnUse">
      <stop style="stop-color:#ffffff;stop-opacity:1;" offset="0" id="stop54"/>
      <stop style="stop-color:#ffffff;stop-opacity:0.7500;" offset="0.1" id="stop56"/>
      <stop style="stop-color:#ffffff;stop-opacity:0.4211;" offset="0.2" id="stop58"/>
      <stop style="stop-color:#ffffff;stop-opacity:0.2345;" offset="0.3" id="stop60"/>
      <stop style="stop-color:#ffffff;stop-opacity:0.1373;" offset="0.4" id="stop62"/>
      <stop style="stop-color:#ffffff;stop-opacity:0.0833;" offset="0.5" id="stop64"/>
      <stop style="stop-color:#ffffff;stop-opacity:0.0511;" offset="0.6" id="stop66"/>
      <stop style="stop-color:#ffffff;stop-opacity:0.0306;" offset="0.7" id="stop68"/>
      <stop style="stop-color:#ffffff;stop-opacity:0.0168;" offset="0.8" id="stop70"/>
      <stop style="stop-color:#ffffff;stop-opacity:0.0071;" offset="0.9" id="stop72"/>
      <stop style="stop-color:#ffffff;stop-opacity:0;" offset="1" id="stop74"/>
    </radialGradient>
    <radialGradient inkscape:collect="always" id="radialGradient_4" cx="397.94852" cy="349.06519" fx="397.94852" fy="349.06519" r="106.29921" gradientUnits="userSpaceOnUse">
      <stop style="stop-color:#ffffff;stop-opacity:1;" offset="0" id="stop77"/>
      <stop style="stop-color:#ffffff;stop-opacity:0.7500;" offset="0.1" id="stop79"/>
      <stop style="stop-color:#ffffff;stop-opacity:0.4211;" offset="0.2" id="stop81"/>
      <stop style="stop-color:#ffffff;stop-opacity:0.2345;" offset="0.3" id="stop83"/>
      <stop style="stop-color:#ffffff;stop-opacity:0.1373;" offset="0.4" id="stop85"/>
      <stop style="stop-color:#ffffff;stop-opacity:0.0833;" offset="0.5" id="stop87"/>
      <stop style="stop-color:#ffffff;stop-opacity:0.0511;" offset="0.6" id="stop89"/>
      <stop style="stop-color:#ffffff;stop-opacity:0.0306;" offset="0.7" id="stop91"/>
      <stop style="stop-color:#ffffff;stop-opacity:0.0168;" offset="0.8" id="stop93"/>
      <stop style="stop-color:#ffffff;stop-opacity:0.0071;" offset="0.9" id="stop95"/>
      <stop style="stop-color:#ffffff;stop-opacity:0;" offset="1" id="stop97"/>
    </radialGradient>
    <radialGradient inkscape:collect="always" id="radialGradient_7" cx="207.78835" cy="348.79819" fx="207.78835" fy="348.79819" r="106.29921" gradientUnits="userSpaceOnUse">
      <stop style="stop-color:#ffffff;stop-opacity:1;" offset="0" id="stop100"/>
      <stop style="stop-color:#ffffff;stop-opacity:0.7500;" offset="0.1" id="stop102"/>
      <stop style="stop-color:#ffffff;stop-opacity:0.4211;" offset="0.2" id="stop104"/>
      <stop style="stop-color:#ffffff;stop-opacity:0.2345;" offset="0.3" id="stop106"/>
      <stop style="stop-color:#ffffff;stop-opacity:0.1373;" offset="0.4" id="stop108"/>
      <stop style="stop-color:#ffffff;stop-opacity:0.0833;" offset="0.5" id="stop110"/>
      <stop style="stop-color:#ffffff;stop-opacity:0.0511;" offset="0.6" id="stop112"/>
      <stop style="stop-color:#ffffff;stop-opacity:0.0306;" offset="0.7" id="stop114"/>
      <stop style="stop-color:#ffffff;stop-opacity:0.0168;" offset="0.8" id="stop116"/>
      <stop style="stop-color:#ffffff;stop-opacity:0.0071;" offset="0.9" id="stop118"/>
      <stop style="stop-color:#ffffff;stop-opacity:0;" offset="1" id="stop120"/>
    </radialGradient>
    <radialGradient inkscape:collect="always" id="radialGradient_9" cx="291.664" cy="212.68504" fx="291.664" fy="212.68504" r="106.29921" gradientUnits="userSpaceOnUse">
      <stop style="stop-color:#ffffff;stop-opacity:1;" offset="0" id="stop123"/>
      <stop style="stop-color:#ffffff;stop-opacity:0.7500;" offset="0.1" id="stop125"/>
      <stop style="stop-color:#ffffff;stop-opacity:0.4211;" offset="0.2" id="stop127"/>
      <stop style="stop-color:#ffffff;stop-opacity:0.2345;" offset="0.3" id="stop129"/>
      <stop style="stop-color:#ffffff;stop-opacity:0.1373;" offset="0.4" id="stop131"/>
      <stop style="stop-color:#ffffff;stop-opacity:0.0833;" offset="0.5" id="stop133"/>
      <stop style="stop-color:#ffffff;stop-opacity:0.0511;" offset="0.6" id="stop135"/>
      <stop style="stop-color:#ffffff;stop-opacity:0.0306;" offset="0.7" id="stop137"/>
      <stop style="stop-color:#ffffff;stop-opacity:0.0168;" offset="0.8" id="stop139"/>
      <stop style="stop-color:#ffffff;stop-opacity:0.0071;" offset="0.9" id="stop141"/>
      <stop style="stop-color:#ffffff;stop-opacity:0;" offset="1" id="stop143"/>
    </radialGradient>
    <radialGradient inkscape:collect="always" id="radialGradient_10" cx="153.50052" cy="252.35185" fx="153.50052" fy="252.35185" r="106.29921" gradientUnits="userSpaceOnUse">
      <stop style="stop-color:#ffffff;stop-opacity:1;" offset="0" id="stop146"/>
      <stop style="stop-color:#ffffff;stop-opacity:0.7500;" offset="0.1" id="stop148"/>
      <stop style="stop-color:#ffffff;stop-opacity:0.4211;" offset="0.2" id="stop150"/>
      <stop style="stop-color:#ffffff;stop-opacity:0.2345;" offset="0.3" id="stop152"/>
      <stop style="stop-color:#ffffff;stop-opacity:0.1373;" offset="0.4" id="stop154"/>
      <stop style="stop-color:#ffffff;stop-opacity:0.0833;" offset="0.5" id="stop156"/>
      <stop style="stop-color:#ffffff;stop-opacity:0.0511;" offset="0.6" id="stop158"/>
      <stop style="stop-color:#ffffff;stop-opacity:0.0306;" offset="0.7" id="stop160"/>
      <stop style="stop-color:#ffffff;stop-opacity:0.0168;" offset="0.8" id="stop162"/>
      <stop style="stop-color:#ffffff;stop-opacity:0.0071;" offset="0.9" id="stop164"/>
      <stop style="stop-color:#ffffff;stop-opacity:0;" offset="1" id="stop166"/>
    </radialGradient>
    <radialGradient inkscape:collect="always" id="radialGradient_11" cx="153.50052" cy="309.04477" fx="153.50052" fy="309.04477" r="106.29921" gradientUnits="userSpaceOnUse">
      <stop style="stop-color:#ffffff;stop-opacity:1;" offset="0" id="stop169"/>
      <stop style="stop-color:#ffffff;stop-opacity:0.7500;" offset="0.1" id="stop171"/>
      <stop style="stop-color:#ffffff;stop-opacity:0.4211;" offset="0.2" id="stop173"/>
      <stop style="stop-color:#ffffff;stop-opacity:0.2345;" offset="0.3" id="stop175"/>
      <stop style="stop-color:#ffffff;stop-opacity:0.1373;" offset="0.4" id="stop177"/>
      <stop style="stop-color:#ffffff;stop-opacity:0.0833;" offset="0.5" id="stop179"/>
      <stop style="stop-color:#ffffff;stop-opacity:0.0511;" offset="0.6" id="stop181"/>
      <stop style="stop-color:#ffffff;stop-opacity:0.0306;" offset="0.7" id="stop183"/>
      <stop style="stop-color:#ffffff;stop-opacity:0.0168;" offset="0.8" id="stop185"/>
      <stop style="stop-color:#ffffff;stop-opacity:0.0071;" offset="0.9" id="stop187"/>
      <stop style="stop-color:#ffffff;stop-opacity:0;" offset="1" id="stop189"/>
    </radialGradient>
    <mask maskUnits="userSpaceOnUse" id="mask_living">
      <path style="opacity:1;fill:#ffffff;fill-opacity:1" d="m 244.57614,203.74019 162.28375,0 0,154.13375 -175.74875,-0.2175 0,-141.51625 13.465,0 z" id="path4383" inkscape:connector-curvature="0"/>
    </mask>
    <mask maskUnits="userSpaceOnUse" id="mask_bed">
      <path style="opacity:1;fill:#ffffff;fill-opacity:1;stroke:none;stroke-width:3.73099995;stroke-miterlimit:3.8636899;stroke-dasharray:14.92399979, 14.92399979;stroke-dashoffset:0;stroke-opacity:1" d="m 290.19739,76.521437 154.8425,0 0,121.550003 -142.08625,0 0,-13.115 -12.75625,0 z" id="path4549" inkscape:connector-curvature="0"/>
    </mask>
    <mask maskUnits="userSpaceOnUse" id="mask_kitchen">
      <rect style="opacity:1;fill:#ffffff;fill-opacity:1;stroke:none;stroke-width:3.73099995;stroke-miterlimit:3.8636899;stroke-dasharray:14.92399979, 14.92399979;stroke-dashoffset:0;stroke-opacity:1" id="rect4559" width="143.94624" height="154.13374" x="81.49614" y="203.74019"/>
    </mask>
  </defs>
  <sodipodi:namedview pagecolor="#000000" bordercolor="#666666" borderopacity="1" objecttolerance="10" gridtolerance="10" guidetolerance="10" inkscape:pageopacity="1" inkscape:pageshadow="2" inkscape:window-width="2560" inkscape:window-height="1391" id="namedview4" showgrid="false" inkscape:snap-bbox="true" inkscape:bbox-paths="true" inkscape:bbox-nodes="true" inkscape:snap-bbox-edge-midpoints="true" inkscape:snap-bbox-midpoints="true" inkscape:object-paths="true" inkscape:snap-intersection-paths="true" inkscape:object-nodes="true" inkscape:snap-smooth-nodes="true" inkscape:snap-midpoints="true" units="mm" inkscape:document-units="mm" inkscape:snap-nodes="true" inkscape:zoom="3.551623" inkscape:cx="244.88958" inkscape:cy="147.33769" inkscape:window-x="0" inkscape:window-y="1" inkscape:window-maximized="1" inkscape:current-layer="layer1" inkscape:snap-object-midpoints="true" inkscape:snap-center="true" inkscape:snap-page="true" borderlayer="true"/>
  <g id="g10" inkscape:groupmode="layer" inkscape:label="69qm" transform="matrix(1.25,0,0,-1.25,0,439.37005)" style="display:inline" sodipodi:insensitive="true">
    <rect style="opacity:1;fill:#000000;fill-opacity:1;stroke:none;stroke-width:1.41732287;stroke-miterlimit:4;stroke-dasharray:none;stroke-opacity:1" id="rect4259" width="433.20474" height="351.49606" x="0" y="-351.49603" transform="scale(1,-1)"/>
    <path inkscape:connector-curvature="0" id="path16" style="fill:#808080;stroke:#ffffff;stroke-width:0.08;stroke-linecap:butt;stroke-linejoin:miter;stroke-miterlimit:4;stroke-dasharray:none;stroke-opacity:1" d="m 65.196913,165.25989 -8.504,0 0,45.358 8.504,0 0,-17.579 20.977,0 0,8.225 51.589997,0 0,22.237 4.536,0 0,-30.462 6.466,0 0,-4.535 -83.568997,0 0,-23.244 z m 0,88.162 0,-13.607 -8.504,0 0,13.607 0,4.535 81.070997,0 4.536,0 30.614,0 0,-4.535 -30.614,0 0,-7.654 -0.157,0 -4.222,0 -0.157,0 0,7.654 -72.566997,0 z m 299.338997,-196.729 -30.544,0 -8.504,0 -89.008,0 0,8.504 89.008,0 0,37.592 8.504,0 0,-37.592 30.544,0 0,-8.504 z m -179.647,124.726 0,7.084 7.937,0 0,-7.084 -7.937,0 z m 12.756,-116.222 -12.756,0 0,0.174 0,8.198 0,105.015 7.937,0 2.835,0 0,2.835 0,7.085 5.032,0 0,4.535 -15.804,0 -4.535,0 -5.173,0 0,-4.535 5.173,0 0,-123.133 0.05,0 0,-0.174 -115.206997,0 0,39.401 -8.504,0 0,-39.401 0,-8.504 123.710997,0 4.485,0 12.756,0 0,8.504 z m 4.56,192.76 0,36.857 4.535,0 157.796,0 0,-4.535 0,-18.999 -8.504,0 0,18.999 -123.874,0 0,-44.511 -4.535,0 0,44.511 -20.883,0 0,-32.322 0,-4.535 -4.535,0 -0.945,0 0,4.535 0.945,0 z m 29.953,-64.918 0,7.657 7.37,0 0,-7.657 -7.37,0 z m 101.834,-8.504 30.544,0 0,4.143 0,4.361 0,19.28 -8.504,0 0,-19.28 -30.544,0 -83.125,0 0,7.658 0,2.834 -2.835,0 -7.37,0 0,17.575 -4.535,0 0,-28.067 -1.418,0 0,-4.535 99.283,0 0,-3.969 0,-8.612 8.504,0 0,8.612 z"/>
    <path inkscape:connector-curvature="0" id="path20" style="fill:none;stroke:#ffffff;stroke-width:0.08;stroke-linecap:butt;stroke-linejoin:miter;stroke-miterlimit:4;stroke-dasharray:none;stroke-opacity:1" d="m 376.51141,184.53529 -42.52,0 0,-8.613 -8.506,0 0,-73.134 8.506,0 0,-37.591 42.52,0 0,119.338 z"/>
    <path d="m 197.64501,60.94519 0,4.252 38.835,0 0,-4.252 -38.835,0 z" style="fill:none;stroke:#ffffff;stroke-width:0.08;stroke-linecap:butt;stroke-linejoin:miter;stroke-miterlimit:4;stroke-dasharray:none;stroke-opacity:1" id="path26" inkscape:connector-curvature="0"/>
    <path inkscape:connector-curvature="0" id="path38" style="fill:none;stroke:#ffffff;stroke-width:0.08;stroke-linecap:butt;stroke-linejoin:miter;stroke-miterlimit:4;stroke-dasharray:none;stroke-opacity:1" d="m 226.20491,188.50389 -25.512,0 0,-25.512 c 14.089,0 25.512,11.422 25.512,25.512 z"/>
    <path inkscape:connector-curvature="0" id="path42" style="fill:none;stroke:#ffffff;stroke-width:0.08065806;stroke-linecap:butt;stroke-linejoin:miter;stroke-miterlimit:4;stroke-dasharray:none;stroke-opacity:1" d="m 232.15791,245.76789 0,-24.662 24.66142,0 c 0,13.619 -11.04017,24.662 -24.66142,24.662 z"/>
    <path inkscape:connector-curvature="0" id="path46" style="fill:none;stroke:#ffffff;stroke-width:0.07986555;stroke-linecap:butt;stroke-linejoin:miter;stroke-miterlimit:4;stroke-dasharray:none;stroke-opacity:1" d="m 175.18091,162.08783 0,26.41606 -26.415,0 c 0,-14.58773 11.82585,-26.41606 26.415,-26.41606 z"/>
    <path inkscape:connector-curvature="0" id="path50" style="fill:none;stroke:#ffffff;stroke-width:0.08003735;stroke-linecap:butt;stroke-linejoin:miter;stroke-miterlimit:4;stroke-dasharray:none;stroke-opacity:1" d="m 201.25991,225.07543 0,28.34646 -28.346,0 c 0,-15.65343 12.69082,-28.34646 28.346,-28.34646 z"/>
    <path inkscape:connector-curvature="0" id="path54" style="fill:none;stroke:#ffffff;stroke-width:0.08010998;stroke-linecap:butt;stroke-linejoin:miter;stroke-miterlimit:4;stroke-dasharray:none;stroke-opacity:1" d="m 137.76391,223.50089 0,22.267 -22.26614,0 c 0,-12.29712 9.96849,-22.267 22.26614,-22.267 z"/>
    <path d="m 65.197013,165.26019 0,-60.662 -4.252,0 0,60.662 4.252,0 z" style="fill:none;stroke:#ffffff;stroke-width:0.08;stroke-linecap:butt;stroke-linejoin:miter;stroke-miterlimit:4;stroke-dasharray:none;stroke-opacity:1" id="path56" inkscape:connector-curvature="0"/>
    <path d="m 65.197013,239.81519 0,-29.197 -4.252,0 0,29.197 4.252,0 z" style="fill:none;stroke:#ffffff;stroke-width:0.08;stroke-linecap:butt;stroke-linejoin:miter;stroke-miterlimit:4;stroke-dasharray:none;stroke-opacity:1" id="path58" inkscape:connector-curvature="0"/>
    <path d="m 360.28401,271.27919 0,-58.959 -4.252,0 0,58.959 4.252,0 z" style="fill:none;stroke:#ffffff;stroke-width:0.08;stroke-linecap:butt;stroke-linejoin:miter;stroke-miterlimit:4;stroke-dasharray:none;stroke-opacity:1" id="path60" inkscape:connector-curvature="0"/>
    <path d="m 329.73701,175.92219 0,-73.134 -4.252,0 0,73.134 4.252,0 z" style="fill:none;stroke:#ffffff;stroke-width:0.08;stroke-linecap:butt;stroke-linejoin:miter;stroke-miterlimit:4;stroke-dasharray:none;stroke-opacity:1" id="path62" inkscape:connector-curvature="0"/>
    <path inkscape:connector-curvature="0" id="path66" style="fill:none;stroke:#ffffff;stroke-width:0.08;stroke-linecap:butt;stroke-linejoin:miter;stroke-miterlimit:4;stroke-dasharray:none;stroke-opacity:1" d="m 305.64231,102.78869 19.843,0 0,19.842 c -10.958,0 -19.843,-8.884 -19.843,-19.842 z"/>
    <path inkscape:connector-curvature="0" id="path70" style="fill:none;stroke:#ffffff;stroke-width:0.08;stroke-linecap:butt;stroke-linejoin:miter;stroke-miterlimit:4;stroke-dasharray:none;stroke-opacity:1" d="m 109.63931,230.58699 c 1.565,0 2.834,-1.27 2.834,-2.835 0,-1.565 -1.269,-2.834 -2.834,-2.834 -1.566,0 -2.835,1.269 -2.835,2.834 0,1.565 1.269,2.835 2.835,2.835 z"/>
    <path inkscape:connector-curvature="0" id="path74" style="fill:none;stroke:#ffffff;stroke-width:0.08;stroke-linecap:butt;stroke-linejoin:miter;stroke-miterlimit:4;stroke-dasharray:none;stroke-opacity:1" d="m 109.63831,223.50059 0,8.504"/>
    <path inkscape:connector-curvature="0" id="path78" style="fill:none;stroke:#ffffff;stroke-width:0.08;stroke-linecap:butt;stroke-linejoin:miter;stroke-miterlimit:4;stroke-dasharray:none;stroke-opacity:1" d="m 105.38641,227.75249 8.504,0"/>
    <path inkscape:connector-curvature="0" id="path82" style="fill:none;stroke:#ffffff;stroke-width:0.08;stroke-linecap:butt;stroke-linejoin:miter;stroke-miterlimit:4;stroke-dasharray:none;stroke-opacity:1" d="m 115.57981,207.08699 c 1.565,0 2.834,-1.27 2.834,-2.835 0,-1.565 -1.269,-2.834 -2.834,-2.834 -1.566,0 -2.835,1.269 -2.835,2.834 0,1.565 1.269,2.835 2.835,2.835 z"/>
    <path inkscape:connector-curvature="0" id="path86" style="fill:none;stroke:#ffffff;stroke-width:0.08;stroke-linecap:butt;stroke-linejoin:miter;stroke-miterlimit:4;stroke-dasharray:none;stroke-opacity:1" d="m 115.57881,200.00059 0,8.504"/>
    <path inkscape:connector-curvature="0" id="path90" style="fill:none;stroke:#ffffff;stroke-width:0.08;stroke-linecap:butt;stroke-linejoin:miter;stroke-miterlimit:4;stroke-dasharray:none;stroke-opacity:1" d="m 111.32681,204.25249 8.504,0"/>
    <path inkscape:connector-curvature="0" id="path94" style="fill:none;stroke:#ffffff;stroke-width:0.08;stroke-linecap:butt;stroke-linejoin:miter;stroke-miterlimit:4;stroke-dasharray:none;stroke-opacity:1" d="m 187.09541,222.08309 c 1.565,0 2.834,-1.27 2.834,-2.835 0,-1.565 -1.269,-2.834 -2.834,-2.834 -1.566,0 -2.835,1.269 -2.835,2.834 0,1.565 1.269,2.835 2.835,2.835 z"/>
    <path inkscape:connector-curvature="0" id="path98" style="fill:none;stroke:#ffffff;stroke-width:0.08;stroke-linecap:butt;stroke-linejoin:miter;stroke-miterlimit:4;stroke-dasharray:none;stroke-opacity:1" d="m 187.09441,214.99669 0,8.504"/>
    <path inkscape:connector-curvature="0" id="path102" style="fill:none;stroke:#ffffff;stroke-width:0.08;stroke-linecap:butt;stroke-linejoin:miter;stroke-miterlimit:4;stroke-dasharray:none;stroke-opacity:1" d="m 182.84241,219.24859 8.504,0"/>
    <path inkscape:connector-curvature="0" id="path154" style="fill:none;stroke:#ffffff;stroke-width:0.08;stroke-linecap:butt;stroke-linejoin:miter;stroke-miterlimit:4;stroke-dasharray:none;stroke-opacity:1" d="m 108.35121,188.48399 c 1.565,0 2.834,-1.27 2.834,-2.835 0,-1.565 -1.269,-2.834 -2.834,-2.834 -1.566,0 -2.835,1.269 -2.835,2.834 0,1.565 1.269,2.835 2.835,2.835 z"/>
    <path inkscape:connector-curvature="0" id="path158" style="fill:none;stroke:#ffffff;stroke-width:0.08;stroke-linecap:butt;stroke-linejoin:miter;stroke-miterlimit:4;stroke-dasharray:none;stroke-opacity:1" d="m 108.35031,181.39759 0,8.504"/>
    <path inkscape:connector-curvature="0" id="path162" style="fill:none;stroke:#ffffff;stroke-width:0.08;stroke-linecap:butt;stroke-linejoin:miter;stroke-miterlimit:4;stroke-dasharray:none;stroke-opacity:1" d="m 104.09831,185.64949 8.504,0"/>
    <path inkscape:connector-curvature="0" id="path166" style="fill:none;stroke:#ffffff;stroke-width:0.08;stroke-linecap:butt;stroke-linejoin:miter;stroke-miterlimit:4;stroke-dasharray:none;stroke-opacity:1" d="m 72.299513,196.98449 c -3.131,0 -5.669,2.538 -5.669,5.669 l 0,37.438 c 0,3.132 2.538,5.67 5.669,5.67 l 6.883,0 c 3.131,0 5.669,-2.538 5.669,-5.67 l 0,-37.438 c 0,-3.131 -2.538,-5.669 -5.669,-5.669 l -6.883,0 z"/>
    <path inkscape:connector-curvature="0" id="path170" style="fill:none;stroke:#ffffff;stroke-width:0.08;stroke-linecap:butt;stroke-linejoin:miter;stroke-miterlimit:4;stroke-dasharray:none;stroke-opacity:1" d="m 100.62561,212.03529 c 0,6.262 -2.537997,11.338 -5.669997,11.338 -3.13,0 -5.668,-5.076 -5.668,-11.338 0,-3.131 2.538,-5.669 5.668,-5.669 3.132,0 5.669997,2.538 5.669997,5.669 z"/>
    <path inkscape:connector-curvature="0" id="path174" style="fill:none;stroke:#ffffff;stroke-width:0.08;stroke-linecap:butt;stroke-linejoin:miter;stroke-miterlimit:4;stroke-dasharray:none;stroke-opacity:1" d="m 122.81411,206.36579 c 0.314,0.888 0.494,1.839 0.494,2.834 0,4.697 -3.807,8.504 -8.504,8.504 -4.696,0 -8.504,-3.807 -8.504,-8.504 0,-0.995 0.18,-1.946 0.494,-2.834 l 16.02,0 z"/>
    <path d="m 137.76401,206.36619 0,-5.102 -51.590997,0 0,5.102 51.590997,0 z" style="fill:none;stroke:#ffffff;stroke-width:0.08;stroke-linecap:butt;stroke-linejoin:miter;stroke-miterlimit:4;stroke-dasharray:none;stroke-opacity:1" id="path176" inkscape:connector-curvature="0"/>
    <path d="m 65.197013,253.42119 0,-60.382 20.977,0 0,60.382 -20.977,0 z" style="fill:none;stroke:#ffffff;stroke-width:0.08;stroke-linecap:butt;stroke-linejoin:miter;stroke-miterlimit:4;stroke-dasharray:none;stroke-opacity:1" id="path178" inkscape:connector-curvature="0"/>
  </g>
  <g inkscape:groupmode="layer" id="layer1" inkscape:label="Feedback">
    <circle r="106.29921" style="opacity:1;fill:url(#radialGradient_1);fill-opacity:1" id="light_1" cx="318.9855" cy="280.80768" mask="url(#mask_living)"/>
    <circle cy="137.29645" cx="367.61862" id="light_2" style="opacity:1;fill:url(#radialGradient_2);fill-opacity:1.0" r="106.29921" mask="url(#mask_bed)"/>
    <circle r="106.29921" cy="349.01566" cx="239.96941" id="light_3" style="opacity:1;fill:url(#radialGradient_3);fill-opacity:1.0" mask="url(#mask_living)"/>
    <circle r="106.29921" cy="349.06519" cx="397.94852" id="light_4" style="opacity:1;fill:url(#radialGradient_4);fill-opacity:1.0" mask="url(#mask_living)"/>
    <circle cy="348.79819" cx="207.78835" id="light_7" style="opacity:1;fill:url(#radialGradient_7);fill-opacity:1.0" r="106.29921" mask="url(#mask_kitchen)"/>
    <circle r="106.29921" cy="212.68504" cx="291.664" id="light_9" style="opacity:1;fill:url(#radialGradient_9);fill-opacity:1.0" mask="url(#mask_living)"/>
    <circle cy="252.35185" cx="153.50052" id="light_10" style="opacity:1;fill:url(#radialGradient_10);fill-opacity:1.0" r="106.29921" mask="url(#mask_kitchen)"/>
    <circle cy="309.04477" cx="153.50052" id="light_11" style="opacity:1;fill:url(#radialGradient_11);fill-opacity:1.0" r="106.29921" mask="url(#mask_kitchen)"/>
    <circle style="opacity:1;stroke:#ffffff;stroke-width:1.77165353;stroke-miterlimit:4;stroke-dasharray:none;stroke-opacity:1;fill:none" id="ring_1" cx="318.9855" cy="280.80768" r="8.8582678"/>
    <circle r="8.8582678" cy="137.29645" cx="367.61862" id="ring_2" style="opacity:1;stroke:#ffffff;stroke-width:1.77165353;stroke-miterlimit:4;stroke-dasharray:none;stroke-opacity:1;fill:none"/>
    <circle r="8.8582678" cy="349.01566" cx="239.96941" id="ring_3" style="opacity:1;stroke:#ffffff;stroke-width:1.77165353;stroke-miterlimit:4;stroke-dasharray:none;stroke-opacity:1;fill:none"/>
    <circle r="8.8582678" cy="349.06519" cx="397.94852" id="ring_4" style="opacity:1;stroke:#ffffff;stroke-width:1.77165353;stroke-miterlimit:4;stroke-dasharray:none;stroke-opacity:1;fill:none"/>
    <circle r="8.8582678" cy="348.79819" cx="207.78835" id="ring_7" style="opacity:1;stroke:#ffffff;stroke-width:1.77165353;stroke-miterlimit:4;stroke-dasharray:none;stroke-opacity:1;fill:none"/>
    <circle r="8.8582678" cy="212.68504" cx="291.664" id="ring_9" style="opacity:1;stroke:#ffffff;stroke-width:1.77165353;stroke-miterlimit:4;stroke-dasharray:none;stroke-opacity:1;fill:none"/>
    <circle r="8.8582678" cy="252.35185" cx="153.50052" id="ring_10" style="opacity:1;stroke:#ffffff;stroke-width:1.77165353;stroke-miterlimit:4;stroke-dasharray:none;stroke-opacity:1;fill:none"/>
    <circle r="8.8582678" cy="309.04477" cx="153.50052" id="ring_11" style="opacity:1;stroke:#ffffff;stroke-width:1.77165353;stroke-miterlimit:4;stroke-dasharray:none;stroke-opacity:1;fill:none"/>
  </g>
  <g inkscape:groupmode="layer" id="layer4" inkscape:label="Touch" style="display:none;opacity:0.1" transform="translate(0,-92.126201)" sodipodi:insensitive="true">
    <circle style="display:inline;fill:#ff0000;fill-opacity:0.37254902;stroke:none;stroke-width:0.1;stroke-miterlimit:4;stroke-dasharray:none;stroke-opacity:1" id="touch_1" cx="318.9855" cy="372.93387" r="17.716536"/>
    <circle r="17.716536" cy="441.19138" cx="397.94852" id="touch_4" style="display:inline;fill:#ff0000;fill-opacity:0.37254902;stroke:none;stroke-width:0.1;stroke-miterlimit:4;stroke-dasharray:none;stroke-opacity:1"/>
    <circle r="17.716536" cy="304.81125" cx="291.664" id="touch_9" style="display:inline;fill:#ff0000;fill-opacity:0.37254902;stroke:none;stroke-width:0.1;stroke-miterlimit:4;stroke-dasharray:none;stroke-opacity:1"/>
    <circle style="display:inline;fill:#ff0000;fill-opacity:0.37254902;stroke:none;stroke-width:0.1;stroke-miterlimit:4;stroke-dasharray:none;stroke-opacity:1" id="touch_10" cx="153.50052" cy="344.47806" r="17.716536"/>
    <circle r="17.716536" cy="401.17096" cx="153.50052" id="touch_11" style="display:inline;fill:#ff0000;fill-opacity:0.37254902;stroke:none;stroke-width:0.1;stroke-miterlimit:4;stroke-dasharray:none;stroke-opacity:1"/>
    <circle style="display:inline;fill:#ff0000;fill-opacity:0.37254902;stroke:none;stroke-width:0.1;stroke-miterlimit:4;stroke-dasharray:none;stroke-opacity:1" id="touch_2" cx="367.61862" cy="229.42265" r="17.716536"/>
    <circle style="display:inline;fill:#ff0000;fill-opacity:0.37254902;stroke:none;stroke-width:0.1;stroke-miterlimit:4;stroke-dasharray:none;stroke-opacity:1" id="touch_7" cx="207.78835" cy="440.92438" r="17.716536"/>
    <circle style="display:inline;fill:#ff0000;fill-opacity:0.37254902;stroke:none;stroke-width:0.1;stroke-miterlimit:4;stroke-dasharray:none;stroke-opacity:1" id="touch_3" cx="239.96941" cy="441.14185" r="17.716536"/>
  </g>
</svg>
